<svg width="250" height="100" viewBox="0 0 250 100" fill="none" xmlns="http://www.w3.org/2000/svg">
<path d="M75.3003 46.1206C75.3003 43.7144 75.8307 41.5652 76.8916 39.673C77.9755 37.7574 79.44 36.274 81.2849 35.2227C83.153 34.1481 85.2401 33.6108 87.5463 33.6108C90.2446 33.6108 92.6085 34.3116 94.638 35.7133C96.6675 37.1149 98.0858 39.0539 98.893 41.5302H93.3234C92.7699 40.3621 91.9858 39.4861 90.9711 38.9021C89.9794 38.318 88.8263 38.026 87.5117 38.026C86.105 38.026 84.8481 38.3648 83.7411 39.0422C82.6571 39.6963 81.8038 40.6308 81.1812 41.8455C80.5815 43.0603 80.2817 44.4853 80.2817 46.1206C80.2817 47.7325 80.5815 49.1575 81.1812 50.3956C81.8038 51.6104 82.6571 52.5565 83.7411 53.234C84.8481 53.8881 86.105 54.2151 87.5117 54.2151C88.8263 54.2151 89.9794 53.9231 90.9711 53.3391C91.9858 52.7317 92.7699 51.844 93.3234 50.676H98.893C98.0858 53.1756 96.6675 55.1262 94.638 56.5279C92.6316 57.9062 90.2677 58.5953 87.5463 58.5953C85.2401 58.5953 83.153 58.0697 81.2849 57.0184C79.44 55.9438 77.9755 54.4604 76.8916 52.5682C75.8307 50.676 75.3003 48.5268 75.3003 46.1206Z" fill="white"/>
<path d="M101.784 48.6085C101.784 46.6462 102.165 44.9058 102.926 43.3874C103.71 41.8689 104.759 40.7008 106.074 39.8832C107.411 39.0656 108.899 38.6568 110.536 38.6568C111.966 38.6568 113.212 38.9488 114.272 39.5328C115.356 40.1168 116.221 40.8527 116.867 41.7404V38.9721H121.745V58.3851H116.867V55.5467C116.244 56.4578 115.379 57.217 114.272 57.8244C113.188 58.4084 111.932 58.7004 110.502 58.7004C108.887 58.7004 107.411 58.2799 106.074 57.4389C104.759 56.5979 103.71 55.4182 102.926 53.8998C102.165 52.3579 101.784 50.5942 101.784 48.6085ZM116.867 48.6786C116.867 47.4872 116.636 46.471 116.175 45.63C115.714 44.7656 115.091 44.1115 114.307 43.6677C113.523 43.2005 112.681 42.9669 111.782 42.9669C110.882 42.9669 110.052 43.1888 109.291 43.6326C108.53 44.0765 107.907 44.7306 107.423 45.595C106.962 46.436 106.731 47.4405 106.731 48.6085C106.731 49.7766 106.962 50.8044 107.423 51.6922C107.907 52.5565 108.53 53.2223 109.291 53.6895C110.075 54.1567 110.905 54.3903 111.782 54.3903C112.681 54.3903 113.523 54.1684 114.307 53.7246C115.091 53.2573 115.714 52.6032 116.175 51.7622C116.636 50.8979 116.867 49.87 116.867 48.6786Z" fill="white"/>
<path d="M137.095 38.6918C139.378 38.6918 141.223 39.4277 142.63 40.8994C144.037 42.3478 144.74 44.3802 144.74 46.9966V58.3851H139.897V47.6624C139.897 46.1206 139.516 44.9409 138.755 44.1232C137.994 43.2822 136.956 42.8617 135.642 42.8617C134.304 42.8617 133.243 43.2822 132.459 44.1232C131.698 44.9409 131.318 46.1206 131.318 47.6624V58.3851H126.475V38.9721H131.318V41.39C131.963 40.549 132.782 39.8949 133.774 39.4277C134.789 38.9371 135.896 38.6918 137.095 38.6918Z" fill="white"/>
<path d="M148.1 48.6085C148.1 46.6462 148.481 44.9058 149.242 43.3874C150.026 41.8689 151.087 40.7008 152.424 39.8832C153.762 39.0656 155.249 38.6568 156.887 38.6568C158.132 38.6568 159.32 38.9371 160.45 39.4978C161.58 40.0351 162.479 40.7592 163.148 41.6703V32.4544H168.06V58.3851H163.148V55.5117C162.549 56.4695 161.707 57.2404 160.623 57.8244C159.539 58.4084 158.282 58.7004 156.852 58.7004C155.238 58.7004 153.762 58.2799 152.424 57.4389C151.087 56.5979 150.026 55.4182 149.242 53.8998C148.481 52.3579 148.1 50.5942 148.1 48.6085ZM163.183 48.6786C163.183 47.4872 162.952 46.471 162.491 45.63C162.03 44.7656 161.407 44.1115 160.623 43.6677C159.839 43.2005 158.997 42.9669 158.098 42.9669C157.198 42.9669 156.368 43.1888 155.607 43.6326C154.846 44.0765 154.223 44.7306 153.739 45.595C153.278 46.436 153.047 47.4405 153.047 48.6085C153.047 49.7766 153.278 50.8044 153.739 51.6922C154.223 52.5565 154.846 53.2223 155.607 53.6895C156.391 54.1567 157.221 54.3903 158.098 54.3903C158.997 54.3903 159.839 54.1684 160.623 53.7246C161.407 53.2573 162.03 52.6032 162.491 51.7622C162.952 50.8979 163.183 49.87 163.183 48.6786Z" fill="white"/>
<path d="M177.634 32.4544V58.3851H172.791V32.4544H177.634Z" fill="white"/>
<path d="M200.234 48.2581C200.234 48.9589 200.188 49.5897 200.096 50.1503H186.086C186.201 51.552 186.685 52.65 187.538 53.4442C188.392 54.2385 189.441 54.6356 190.686 54.6356C192.485 54.6356 193.765 53.853 194.526 52.2879H199.75C199.196 54.1567 198.136 55.6986 196.567 56.9133C194.999 58.1047 193.073 58.7004 190.79 58.7004C188.945 58.7004 187.285 58.2916 185.809 57.474C184.356 56.633 183.214 55.4533 182.384 53.9348C181.577 52.4163 181.173 50.6643 181.173 48.6786C181.173 46.6696 181.577 44.9058 182.384 43.3874C183.191 41.8689 184.321 40.7008 185.774 39.8832C187.227 39.0656 188.899 38.6568 190.79 38.6568C192.612 38.6568 194.238 39.0539 195.668 39.8482C197.121 40.6424 198.239 41.7754 199.023 43.2472C199.831 44.6956 200.234 46.3659 200.234 48.2581ZM195.218 46.8564C195.195 45.595 194.745 44.5904 193.869 43.8429C192.993 43.072 191.92 42.6865 190.652 42.6865C189.453 42.6865 188.438 43.0603 187.608 43.8078C186.8 44.532 186.305 45.5482 186.12 46.8564H195.218Z" fill="white"/>
<path d="M202.524 48.6085C202.524 46.6462 202.904 44.9058 203.665 43.3874C204.45 41.8689 205.499 40.7008 206.813 39.8832C208.151 39.0656 209.639 38.6568 211.276 38.6568C212.706 38.6568 213.951 38.9488 215.012 39.5328C216.096 40.1168 216.961 40.8527 217.607 41.7404V38.9721H222.484V58.3851H217.607V55.5467C216.984 56.4578 216.119 57.217 215.012 57.8244C213.928 58.4084 212.671 58.7004 211.241 58.7004C209.627 58.7004 208.151 58.2799 206.813 57.4389C205.499 56.5979 204.45 55.4182 203.665 53.8998C202.904 52.3579 202.524 50.5942 202.524 48.6085ZM217.607 48.6786C217.607 47.4872 217.376 46.471 216.915 45.63C216.453 44.7656 215.831 44.1115 215.047 43.6677C214.263 43.2005 213.421 42.9669 212.521 42.9669C211.622 42.9669 210.792 43.1888 210.031 43.6326C209.27 44.0765 208.647 44.7306 208.163 45.595C207.701 46.436 207.471 47.4405 207.471 48.6085C207.471 49.7766 207.701 50.8044 208.163 51.6922C208.647 52.5565 209.27 53.2223 210.031 53.6895C210.815 54.1567 211.645 54.3903 212.521 54.3903C213.421 54.3903 214.263 54.1684 215.047 53.7246C215.831 53.2573 216.453 52.6032 216.915 51.7622C217.376 50.8979 217.607 49.87 217.607 48.6786Z" fill="white"/>
<path d="M236.001 43.0019H232.645V58.3851H227.733V43.0019H225.554V38.9721H227.733V37.991C227.733 35.6082 228.402 33.8561 229.74 32.7348C231.077 31.6135 233.095 31.0878 235.793 31.1579V35.2928C234.617 35.2694 233.799 35.468 233.337 35.8885C232.876 36.309 232.645 37.0682 232.645 38.1662V38.9721H236.001V43.0019Z" fill="white"/>
<g clip-path="url(#clip0_1330_109)">
<mask id="mask0_1330_109" style="mask-type:alpha" maskUnits="userSpaceOnUse" x="0" y="16" width="64" height="64">
<circle cx="31.681" cy="47.681" r="31.681" fill="#F578A5"/>
</mask>
<g mask="url(#mask0_1330_109)">
<circle cx="31.681" cy="47.681" r="31.681" fill="white"/>
<path d="M17.1082 78.9028V79.5959H17.8013H47.1865H47.8796V78.9028V66.5728C47.8796 65.4403 46.982 64.5116 45.8501 64.473L19.2809 63.5672C18.0931 63.5267 17.1082 64.4786 17.1082 65.6671V78.9028Z" fill="#272727" stroke="#272727" stroke-width="1.38604"/>
<g clip-path="url(#clip1_1330_109)">
<path d="M23.2124 38.246C29.6688 29.269 26.8916 21.962 26.8994 21.9534C26.7625 21.5874 26.9482 21.1799 27.3141 21.043C27.4987 20.9739 27.7037 20.9851 27.8798 21.0736C39.5324 26.6495 44.5468 33.8475 45.507 40.3552C45.8887 42.8836 45.6501 45.4669 44.8117 47.8827C44.0434 50.1117 42.7637 52.1298 41.0751 53.7752C37.8269 56.9121 33.2876 58.3582 28.8075 56.8922C27.6615 56.5183 26.5801 55.9698 25.6015 55.2659C23.6383 53.857 22.1492 51.8852 21.3312 49.6114C20.4632 47.1795 20.4356 44.527 21.2528 42.0777C21.7042 40.7068 22.3652 39.4142 23.2124 38.246Z" fill="#272727"/>
<path d="M27.0411 22.1851C26.7573 21.9166 26.7448 21.4689 27.0133 21.1851C27.2817 20.9014 27.7294 20.8888 28.0132 21.1573C28.0341 21.177 28.0537 21.198 28.072 21.2202C28.098 21.2436 33.724 27.1408 34.5278 38.5389L34.5361 38.6458C34.7097 41.3098 34.6239 43.9844 34.2804 46.6318L38.1273 43.6837C38.4496 43.4627 38.8899 43.5449 39.1108 43.867C39.3107 44.1587 39.2646 44.5532 39.0027 44.7909L33.9752 48.632C32.8496 55.2491 28.8819 64.6103 34.1344 70.4693C34.3874 70.767 34.3511 71.2134 34.0534 71.4664C33.77 71.7072 33.3486 71.6875 33.089 71.4212C26.7904 64.4007 31.3736 55.7035 32.6279 48.1825L32.6444 48.0771C33.1544 45.0841 33.3292 42.0437 33.1655 39.0121L28.6437 35.6989C28.3212 35.4785 28.2384 35.0383 28.4589 34.7158C28.6794 34.3932 29.1195 34.3105 29.4421 34.531C29.4554 34.5401 29.4685 34.5497 29.4812 34.5597L32.9848 37.1392C31.8919 27.2588 27.0616 22.2088 27.0411 22.1851Z" fill="white"/>
</g>
</g>
</g>
<defs>
<clipPath id="clip0_1330_109">
<rect width="63.362" height="63.362" fill="white" transform="translate(0 16)"/>
</clipPath>
<clipPath id="clip1_1330_109">
<rect width="38.8832" height="38.8832" fill="white" transform="translate(3.73486 47.0383) rotate(-48)"/>
</clipPath>
</defs>
</svg>
